<?xml version="1.0" encoding="iso-8859-1"?>
<!-- Generator: Adobe Illustrator 19.0.0, SVG Export Plug-In . SVG Version: 6.00 Build 0)  -->
<svg version="1.1" id="Layer_1" xmlns="http://www.w3.org/2000/svg" xmlns:xlink="http://www.w3.org/1999/xlink" x="0px" y="0px"
	 viewBox="0 0 512.003 512.003" style="enable-background:new 0 0 512.003 512.003;" xml:space="preserve">
<circle style="fill:#FDDF6D;" cx="256.001" cy="256.001" r="256.001"/>
<path style="fill:#FCC56B;" d="M310.859,474.208c-141.385,0-256-114.615-256-256c0-75.537,32.722-143.422,84.757-190.281
	C56.738,70.303,0,156.525,0,256c0,141.385,114.615,256,256,256c65.849,0,125.883-24.87,171.243-65.718
	C392.325,464.135,352.77,474.208,310.859,474.208z"/>
<g>
	<circle style="fill:#7F184C;" cx="211.414" cy="176.754" r="31.243"/>
	<circle style="fill:#7F184C;" cx="387.321" cy="176.754" r="31.243"/>
</g>
<g>
	<path style="fill:#F9A880;" d="M145.987,240.152c-19.011,0-34.425,15.412-34.425,34.425h68.848
		C180.41,255.564,164.998,240.152,145.987,240.152z"/>
	<path style="fill:#F9A880;" d="M446.251,235.539c-19.011,0-34.425,15.412-34.425,34.425h68.848
		C480.676,250.951,465.264,235.539,446.251,235.539z"/>
</g>
<path style="fill:#7F184C;" d="M401.566,359.206H213.621c-5.753,0-10.414-4.663-10.414-10.414s4.662-10.414,10.414-10.414h187.945
	c5.753,0,10.414,4.663,10.414,10.414S407.319,359.206,401.566,359.206z"/>
<ellipse transform="matrix(0.2723 -0.9622 0.9622 0.2723 136.205 334.8704)" style="fill:#FCEB88;" cx="289.497" cy="77.385" rx="29.854" ry="53.46"/>
<g>
</g>
<g>
</g>
<g>
</g>
<g>
</g>
<g>
</g>
<g>
</g>
<g>
</g>
<g>
</g>
<g>
</g>
<g>
</g>
<g>
</g>
<g>
</g>
<g>
</g>
<g>
</g>
<g>
</g>
</svg>
